<?xml version="1.0" encoding="UTF-8"?>
<svg xmlns="http://www.w3.org/2000/svg" width="1500" height="650" viewBox="0 0 1500 650">
<defs>
  <marker id="arrow" markerWidth="12" markerHeight="12" refX="10" refY="6" orient="auto" markerUnits="strokeWidth">
    <path d="M2,2 L10,6 L2,10 z" fill="#41546f"/>
  </marker>
  <filter id="shadow" x="-10%" y="-10%" width="120%" height="120%"><feDropShadow dx="0" dy="3" stdDeviation="3" flood-color="#0f172a" flood-opacity="0.12"/></filter>
</defs>
<rect x="0" y="0" width="1500" height="650" fill="#ffffff"/>
<text x="750" y="40" text-anchor="middle" font-family="Arial, sans-serif" font-size="28" font-weight="800" fill="#0f2f5f">State flow trạng thái đơn hàng</text>
<text x="750" y="70" text-anchor="middle" font-family="Arial, sans-serif" font-size="15" fill="#526173">Các trạng thái chính của Order trong hệ thống DPWOOD</text>
<path d="M 230 279 L 310 280" fill="none" stroke="#41546f" stroke-width="2.2" marker-end="url(#arrow)"/><text x="270" y="271.5" text-anchor="middle" font-family="Arial, sans-serif" font-size="14" font-weight="700" fill="#334155">Tạo đơn</text>
<path d="M 550 280 L 610 280 L 610 155 L 650 155" fill="none" stroke="#41546f" stroke-width="2.2" marker-end="url(#arrow)"/><text x="610" y="147" text-anchor="middle" font-family="Arial, sans-serif" font-size="14" font-weight="700" fill="#334155">Webhook PayOS</text>
<path d="M 550 280 L 610 280 L 610 405 L 650 405" fill="none" stroke="#41546f" stroke-width="2.2" marker-end="url(#arrow)"/><text x="610" y="397" text-anchor="middle" font-family="Arial, sans-serif" font-size="14" font-weight="700" fill="#334155">Admin giao hàng</text>
<path d="M 430 325 L 430 480" fill="none" stroke="#41546f" stroke-width="2.2" marker-end="url(#arrow)"/><text x="430" y="394.5" text-anchor="middle" font-family="Arial, sans-serif" font-size="14" font-weight="700" fill="#334155">Khách hủy</text>
<path d="M 770 200 L 770 360" fill="none" stroke="#41546f" stroke-width="2.2" marker-end="url(#arrow)"/><text x="770" y="272" text-anchor="middle" font-family="Arial, sans-serif" font-size="14" font-weight="700" fill="#334155">Admin xử lý</text>
<path d="M 890 405 L 990 280" fill="none" stroke="#41546f" stroke-width="2.2" marker-end="url(#arrow)"/><text x="940" y="334.5" text-anchor="middle" font-family="Arial, sans-serif" font-size="14" font-weight="700" fill="#334155">Giao xong</text>
<path d="M 890 155 L 1110 155 L 1110 235 L 1110 235" fill="none" stroke="#41546f" stroke-width="2.2" marker-end="url(#arrow)"/><text x="1110" y="227" text-anchor="middle" font-family="Arial, sans-serif" font-size="14" font-weight="700" fill="#334155">Hoàn tất trực tiếp</text>
<path d="M 1230 280 L 1290 279" fill="none" stroke="#41546f" stroke-width="2.2" marker-end="url(#arrow)"/>
<rect x="90" y="250" width="140" height="58" rx="28" fill="#e8fff3" stroke="#16a34a" stroke-width="2.4"/>
<text x="160" y="279" text-anchor="middle" dominant-baseline="middle" font-family="Arial, sans-serif" font-size="16" font-weight="700" fill="#172033"><tspan x="160" dy="0">Start</tspan></text>
<rect x="310" y="235" width="240" height="90" rx="10" fill="#fff7ed" stroke="#d97706" stroke-width="2.4"/>
<text x="430" y="270" text-anchor="middle" dominant-baseline="middle" font-family="Arial, sans-serif" font-size="16" font-weight="700" fill="#172033"><tspan x="430" dy="0">PENDING Đơn vừa</tspan><tspan x="430" dy="20">tạo/chờ xử lý</tspan></text>
<rect x="650" y="110" width="240" height="90" rx="10" fill="#dcfce7" stroke="#16a34a" stroke-width="2.4"/>
<text x="770" y="145" text-anchor="middle" dominant-baseline="middle" font-family="Arial, sans-serif" font-size="16" font-weight="700" fill="#172033"><tspan x="770" dy="0">PAID QR đã thanh</tspan><tspan x="770" dy="20">toán</tspan></text>
<rect x="650" y="360" width="240" height="90" rx="10" fill="#e0f2fe" stroke="#0284c7" stroke-width="2.4"/>
<text x="770" y="395" text-anchor="middle" dominant-baseline="middle" font-family="Arial, sans-serif" font-size="16" font-weight="700" fill="#172033"><tspan x="770" dy="0">SHIPPING Đang</tspan><tspan x="770" dy="20">giao hàng</tspan></text>
<rect x="990" y="235" width="240" height="90" rx="10" fill="#dcfce7" stroke="#16a34a" stroke-width="2.4"/>
<text x="1110" y="270" text-anchor="middle" dominant-baseline="middle" font-family="Arial, sans-serif" font-size="16" font-weight="700" fill="#172033"><tspan x="1110" dy="0">COMPLETED Đã</tspan><tspan x="1110" dy="20">hoàn tất</tspan></text>
<rect x="310" y="480" width="240" height="90" rx="10" fill="#fee2e2" stroke="#dc2626" stroke-width="2.4"/>
<text x="430" y="525" text-anchor="middle" dominant-baseline="middle" font-family="Arial, sans-serif" font-size="16" font-weight="700" fill="#172033"><tspan x="430" dy="0">CANCELED Đã hủy</tspan></text>
<rect x="1290" y="250" width="140" height="58" rx="28" fill="#e8fff3" stroke="#16a34a" stroke-width="2.4"/>
<text x="1360" y="279" text-anchor="middle" dominant-baseline="middle" font-family="Arial, sans-serif" font-size="16" font-weight="700" fill="#172033"><tspan x="1360" dy="0">End</tspan></text>
</svg>