<?xml version="1.0" encoding="UTF-8"?>
<svg xmlns="http://www.w3.org/2000/svg" width="1200" height="2000" viewBox="0 0 1200 2000">
<defs>
  <marker id="arrow" markerWidth="12" markerHeight="12" refX="10" refY="6" orient="auto" markerUnits="strokeWidth">
    <path d="M2,2 L10,6 L2,10 z" fill="#41546f"/>
  </marker>
  <filter id="shadow" x="-10%" y="-10%" width="120%" height="120%"><feDropShadow dx="0" dy="3" stdDeviation="3" flood-color="#0f172a" flood-opacity="0.12"/></filter>
</defs>
<rect x="0" y="0" width="1200" height="2000" fill="#ffffff"/>
<text x="600" y="40" text-anchor="middle" font-family="Arial, sans-serif" font-size="28" font-weight="800" fill="#0f2f5f">Flow tổng quát chức năng thanh toán</text>
<text x="600" y="70" text-anchor="middle" font-family="Arial, sans-serif" font-size="15" fill="#526173">DPWOOD - Người 1: Workflow / Process Flow</text>
<path d="M 600 153 L 600 185" fill="none" stroke="#41546f" stroke-width="2.2" marker-end="url(#arrow)"/>
<path d="M 600 255 L 600 285" fill="none" stroke="#41546f" stroke-width="2.2" marker-end="url(#arrow)"/>
<path d="M 600 355 L 600 385" fill="none" stroke="#41546f" stroke-width="2.2" marker-end="url(#arrow)"/>
<path d="M 600 455 L 600 490" fill="none" stroke="#41546f" stroke-width="2.2" marker-end="url(#arrow)"/>
<path d="M 465 540 L 390 540" fill="none" stroke="#41546f" stroke-width="2.2" marker-end="url(#arrow)"/><text x="427.5" y="532" text-anchor="middle" font-family="Arial, sans-serif" font-size="14" font-weight="700" fill="#334155">Không</text>
<path d="M 600 590 L 600 625" fill="none" stroke="#41546f" stroke-width="2.2" marker-end="url(#arrow)"/><text x="600" y="599.5" text-anchor="middle" font-family="Arial, sans-serif" font-size="14" font-weight="700" fill="#334155">Có</text>
<path d="M 600 695 L 600 730" fill="none" stroke="#41546f" stroke-width="2.2" marker-end="url(#arrow)"/>
<path d="M 735 780 L 820 780" fill="none" stroke="#41546f" stroke-width="2.2" marker-end="url(#arrow)"/><text x="777.5" y="772" text-anchor="middle" font-family="Arial, sans-serif" font-size="14" font-weight="700" fill="#334155">Không</text>
<path d="M 960 745 L 960 705 L 790 660 L 790 660" fill="none" stroke="#41546f" stroke-width="2.2" marker-end="url(#arrow)"/>
<path d="M 600 830 L 600 865" fill="none" stroke="#41546f" stroke-width="2.2" marker-end="url(#arrow)"/><text x="600" y="839.5" text-anchor="middle" font-family="Arial, sans-serif" font-size="14" font-weight="700" fill="#334155">Có</text>
<path d="M 600 935 L 600 965" fill="none" stroke="#41546f" stroke-width="2.2" marker-end="url(#arrow)"/>
<path d="M 600 1035 L 600 1065" fill="none" stroke="#41546f" stroke-width="2.2" marker-end="url(#arrow)"/>
<path d="M 600 1135 L 600 1165" fill="none" stroke="#41546f" stroke-width="2.2" marker-end="url(#arrow)"/>
<path d="M 600 1235 L 600 1270" fill="none" stroke="#41546f" stroke-width="2.2" marker-end="url(#arrow)"/>
<path d="M 465 1320 L 390 1320" fill="none" stroke="#41546f" stroke-width="2.2" marker-end="url(#arrow)"/><text x="427.5" y="1312" text-anchor="middle" font-family="Arial, sans-serif" font-size="14" font-weight="700" fill="#334155">Không</text>
<path d="M 235 1285 L 235 1120 L 410 900 L 410 900" fill="none" stroke="#41546f" stroke-width="2.2" marker-end="url(#arrow)"/>
<path d="M 600 1370 L 600 1410" fill="none" stroke="#41546f" stroke-width="2.2" marker-end="url(#arrow)"/><text x="600" y="1382" text-anchor="middle" font-family="Arial, sans-serif" font-size="14" font-weight="700" fill="#334155">Có</text>
<path d="M 465 1460 L 240 1460 L 240 1540 L 245 1540" fill="none" stroke="#41546f" stroke-width="2.2" marker-end="url(#arrow)"/><text x="240" y="1532" text-anchor="middle" font-family="Arial, sans-serif" font-size="14" font-weight="700" fill="#334155">COD</text>
<path d="M 735 1460 L 955 1460 L 955 1540 L 955 1540" fill="none" stroke="#41546f" stroke-width="2.2" marker-end="url(#arrow)"/><text x="955" y="1532" text-anchor="middle" font-family="Arial, sans-serif" font-size="14" font-weight="700" fill="#334155">QR</text>
<path d="M 410 1580 L 435 1825" fill="none" stroke="#41546f" stroke-width="2.2" marker-end="url(#arrow)"/>
<path d="M 955 1620 L 955 1660" fill="none" stroke="#41546f" stroke-width="2.2" marker-end="url(#arrow)"/>
<path d="M 825 1710 L 680 1710 L 680 1825 L 765 1825" fill="none" stroke="#41546f" stroke-width="2.2" marker-end="url(#arrow)"/><text x="680" y="1817" text-anchor="middle" font-family="Arial, sans-serif" font-size="14" font-weight="700" fill="#334155">Có</text>
<path d="M 955 1760 L 955 1790" fill="none" stroke="#41546f" stroke-width="2.2" marker-end="url(#arrow)"/><text x="955" y="1767" text-anchor="middle" font-family="Arial, sans-serif" font-size="14" font-weight="700" fill="#334155">Hủy</text>
<path d="M 600 1860 L 600 1900" fill="none" stroke="#41546f" stroke-width="2.2" marker-end="url(#arrow)"/>
<rect x="455" y="95" width="290" height="58" rx="28" fill="#e8fff3" stroke="#16a34a" stroke-width="2.4"/>
<text x="600" y="124" text-anchor="middle" dominant-baseline="middle" font-family="Arial, sans-serif" font-size="16" font-weight="700" fill="#172033"><tspan x="600" dy="0">Bắt đầu</tspan></text>
<rect x="410" y="185" width="380" height="70" rx="10" fill="#eef4ff" stroke="#3569b8" stroke-width="2.4"/>
<text x="600" y="210" text-anchor="middle" dominant-baseline="middle" font-family="Arial, sans-serif" font-size="16" font-weight="700" fill="#172033"><tspan x="600" dy="0">Khách chọn Mua ngay /</tspan><tspan x="600" dy="20">Thêm vào giỏ</tspan></text>
<rect x="410" y="285" width="380" height="70" rx="10" fill="#eef4ff" stroke="#3569b8" stroke-width="2.4"/>
<text x="600" y="310" text-anchor="middle" dominant-baseline="middle" font-family="Arial, sans-serif" font-size="16" font-weight="700" fill="#172033"><tspan x="600" dy="0">Frontend lưu sản phẩm</tspan><tspan x="600" dy="20">vào localStorage cart</tspan></text>
<rect x="410" y="385" width="380" height="70" rx="10" fill="#eef4ff" stroke="#3569b8" stroke-width="2.4"/>
<text x="600" y="420" text-anchor="middle" dominant-baseline="middle" font-family="Arial, sans-serif" font-size="16" font-weight="700" fill="#172033"><tspan x="600" dy="0">Khách mở trang /cart</tspan></text>
<polygon points="600,490 735,540 600,590 465,540" fill="#fff7ed" stroke="#d97706" stroke-width="2.4"/>
<text x="600" y="540" text-anchor="middle" dominant-baseline="middle" font-family="Arial, sans-serif" font-size="16" font-weight="700" fill="#172033"><tspan x="600" dy="0">Đã đăng nhập?</tspan></text>
<rect x="80" y="505" width="310" height="70" rx="10" fill="#fee2e2" stroke="#dc2626" stroke-width="2.4"/>
<text x="235" y="530" text-anchor="middle" dominant-baseline="middle" font-family="Arial, sans-serif" font-size="16" font-weight="700" fill="#172033"><tspan x="235" dy="0">Thông báo và chuyển sang</tspan><tspan x="235" dy="20">/login</tspan></text>
<rect x="410" y="625" width="380" height="70" rx="10" fill="#eef4ff" stroke="#3569b8" stroke-width="2.4"/>
<text x="600" y="650" text-anchor="middle" dominant-baseline="middle" font-family="Arial, sans-serif" font-size="16" font-weight="700" fill="#172033"><tspan x="600" dy="0">Tải / chọn địa chỉ giao</tspan><tspan x="600" dy="20">hàng</tspan></text>
<polygon points="600,730 735,780 600,830 465,780" fill="#fff7ed" stroke="#d97706" stroke-width="2.4"/>
<text x="600" y="780" text-anchor="middle" dominant-baseline="middle" font-family="Arial, sans-serif" font-size="16" font-weight="700" fill="#172033"><tspan x="600" dy="0">Có địa chỉ?</tspan></text>
<rect x="820" y="745" width="280" height="70" rx="10" fill="#fef3c7" stroke="#d97706" stroke-width="2.4"/>
<text x="960" y="780" text-anchor="middle" dominant-baseline="middle" font-family="Arial, sans-serif" font-size="16" font-weight="700" fill="#172033"><tspan x="960" dy="0">Thêm địa chỉ mới</tspan></text>
<rect x="410" y="865" width="380" height="70" rx="10" fill="#eef4ff" stroke="#3569b8" stroke-width="2.4"/>
<text x="600" y="890" text-anchor="middle" dominant-baseline="middle" font-family="Arial, sans-serif" font-size="16" font-weight="700" fill="#172033"><tspan x="600" dy="0">Kiểm tra giỏ hàng, số</tspan><tspan x="600" dy="20">lượng, voucher</tspan></text>
<rect x="410" y="965" width="380" height="70" rx="10" fill="#eef4ff" stroke="#3569b8" stroke-width="2.4"/>
<text x="600" y="990" text-anchor="middle" dominant-baseline="middle" font-family="Arial, sans-serif" font-size="16" font-weight="700" fill="#172033"><tspan x="600" dy="0">Chọn phương thức COD</tspan><tspan x="600" dy="20">hoặc QR</tspan></text>
<rect x="410" y="1065" width="380" height="70" rx="10" fill="#eef4ff" stroke="#3569b8" stroke-width="2.4"/>
<text x="600" y="1100" text-anchor="middle" dominant-baseline="middle" font-family="Arial, sans-serif" font-size="16" font-weight="700" fill="#172033"><tspan x="600" dy="0">Xác nhận đặt hàng</tspan></text>
<rect x="410" y="1165" width="380" height="70" rx="10" fill="#eef4ff" stroke="#3569b8" stroke-width="2.4"/>
<text x="600" y="1190" text-anchor="middle" dominant-baseline="middle" font-family="Arial, sans-serif" font-size="16" font-weight="700" fill="#172033"><tspan x="600" dy="0">POST</tspan><tspan x="600" dy="20">/api/orders/checkout</tspan></text>
<polygon points="600,1270 735,1320 600,1370 465,1320" fill="#fff7ed" stroke="#d97706" stroke-width="2.4"/>
<text x="600" y="1320" text-anchor="middle" dominant-baseline="middle" font-family="Arial, sans-serif" font-size="16" font-weight="700" fill="#172033"><tspan x="600" dy="0">Backend kiểm tra hợp lệ?</tspan></text>
<rect x="80" y="1285" width="310" height="70" rx="10" fill="#fee2e2" stroke="#dc2626" stroke-width="2.4"/>
<text x="235" y="1310" text-anchor="middle" dominant-baseline="middle" font-family="Arial, sans-serif" font-size="16" font-weight="700" fill="#172033"><tspan x="235" dy="0">Rollback và trả lỗi cho</tspan><tspan x="235" dy="20">khách</tspan></text>
<polygon points="600,1410 735,1460 600,1510 465,1460" fill="#fff7ed" stroke="#d97706" stroke-width="2.4"/>
<text x="600" y="1460" text-anchor="middle" dominant-baseline="middle" font-family="Arial, sans-serif" font-size="16" font-weight="700" fill="#172033"><tspan x="600" dy="0">Thanh toán bằng?</tspan></text>
<rect x="80" y="1540" width="330" height="80" rx="10" fill="#ecfeff" stroke="#0891b2" stroke-width="2.4"/>
<text x="245" y="1570" text-anchor="middle" dominant-baseline="middle" font-family="Arial, sans-serif" font-size="16" font-weight="700" fill="#172033"><tspan x="245" dy="0">COD: tạo đơn PENDING,</tspan><tspan x="245" dy="20">gửi email, xóa cart</tspan></text>
<rect x="790" y="1540" width="330" height="80" rx="10" fill="#eef2ff" stroke="#4f46e5" stroke-width="2.4"/>
<text x="955" y="1570" text-anchor="middle" dominant-baseline="middle" font-family="Arial, sans-serif" font-size="16" font-weight="700" fill="#172033"><tspan x="955" dy="0">QR: tạo mã PayOS và hiển</tspan><tspan x="955" dy="20">thị QR</tspan></text>
<polygon points="955,1660 1085,1710 955,1760 825,1710" fill="#fff7ed" stroke="#d97706" stroke-width="2.4"/>
<text x="955" y="1710" text-anchor="middle" dominant-baseline="middle" font-family="Arial, sans-serif" font-size="16" font-weight="700" fill="#172033"><tspan x="955" dy="0">PayOS webhook PAID?</tspan></text>
<rect x="435" y="1790" width="330" height="70" rx="10" fill="#dcfce7" stroke="#16a34a" stroke-width="2.4"/>
<text x="600" y="1815" text-anchor="middle" dominant-baseline="middle" font-family="Arial, sans-serif" font-size="16" font-weight="700" fill="#172033"><tspan x="600" dy="0">Hiển thị đặt hàng thành</tspan><tspan x="600" dy="20">công</tspan></text>
<rect x="790" y="1790" width="330" height="70" rx="10" fill="#fee2e2" stroke="#dc2626" stroke-width="2.4"/>
<text x="955" y="1815" text-anchor="middle" dominant-baseline="middle" font-family="Arial, sans-serif" font-size="16" font-weight="700" fill="#172033"><tspan x="955" dy="0">Hủy QR: status CANCELED,</tspan><tspan x="955" dy="20">hoàn tồn kho</tspan></text>
<rect x="455" y="1900" width="290" height="58" rx="28" fill="#e8fff3" stroke="#16a34a" stroke-width="2.4"/>
<text x="600" y="1929" text-anchor="middle" dominant-baseline="middle" font-family="Arial, sans-serif" font-size="16" font-weight="700" fill="#172033"><tspan x="600" dy="0">Kết thúc</tspan></text>
</svg>