<?xml version="1.0" encoding="UTF-8"?>
<svg xmlns="http://www.w3.org/2000/svg" width="1000" height="1330" viewBox="0 0 1000 1330">
<defs>
  <marker id="arrow" markerWidth="12" markerHeight="12" refX="10" refY="6" orient="auto" markerUnits="strokeWidth">
    <path d="M2,2 L10,6 L2,10 z" fill="#41546f"/>
  </marker>
  <filter id="shadow" x="-10%" y="-10%" width="120%" height="120%"><feDropShadow dx="0" dy="3" stdDeviation="3" flood-color="#0f172a" flood-opacity="0.12"/></filter>
</defs>
<rect x="0" y="0" width="1000" height="1330" fill="#ffffff"/>
<text x="500" y="40" text-anchor="middle" font-family="Arial, sans-serif" font-size="28" font-weight="800" fill="#0f2f5f">Flow thanh toán COD</text>
<text x="500" y="70" text-anchor="middle" font-family="Arial, sans-serif" font-size="15" fill="#526173">Đặt hàng, tạo Order PENDING và gửi email xác nhận</text>
<path d="M 500 148 L 500 190" fill="none" stroke="#41546f" stroke-width="2.2" marker-end="url(#arrow)"/>
<path d="M 500 260 L 500 300" fill="none" stroke="#41546f" stroke-width="2.2" marker-end="url(#arrow)"/>
<path d="M 500 370 L 500 410" fill="none" stroke="#41546f" stroke-width="2.2" marker-end="url(#arrow)"/>
<path d="M 500 480 L 500 520" fill="none" stroke="#41546f" stroke-width="2.2" marker-end="url(#arrow)"/>
<path d="M 500 605 L 500 650" fill="none" stroke="#41546f" stroke-width="2.2" marker-end="url(#arrow)"/>
<path d="M 365 700 L 330 700" fill="none" stroke="#41546f" stroke-width="2.2" marker-end="url(#arrow)"/><text x="347.5" y="692" text-anchor="middle" font-family="Arial, sans-serif" font-size="14" font-weight="700" fill="#334155">Không</text>
<path d="M 500 750 L 500 800" fill="none" stroke="#41546f" stroke-width="2.2" marker-end="url(#arrow)"/><text x="500" y="767" text-anchor="middle" font-family="Arial, sans-serif" font-size="14" font-weight="700" fill="#334155">Có</text>
<path d="M 500 870 L 500 910" fill="none" stroke="#41546f" stroke-width="2.2" marker-end="url(#arrow)"/>
<path d="M 500 980 L 500 1020" fill="none" stroke="#41546f" stroke-width="2.2" marker-end="url(#arrow)"/>
<path d="M 500 1090 L 500 1130" fill="none" stroke="#41546f" stroke-width="2.2" marker-end="url(#arrow)"/>
<path d="M 500 1200 L 500 1240" fill="none" stroke="#41546f" stroke-width="2.2" marker-end="url(#arrow)"/>
<rect x="355" y="90" width="290" height="58" rx="28" fill="#e8fff3" stroke="#16a34a" stroke-width="2.4"/>
<text x="500" y="119" text-anchor="middle" dominant-baseline="middle" font-family="Arial, sans-serif" font-size="16" font-weight="700" fill="#172033"><tspan x="500" dy="0">Bắt đầu COD</tspan></text>
<rect x="310" y="190" width="380" height="70" rx="10" fill="#eef4ff" stroke="#3569b8" stroke-width="2.4"/>
<text x="500" y="215" text-anchor="middle" dominant-baseline="middle" font-family="Arial, sans-serif" font-size="16" font-weight="700" fill="#172033"><tspan x="500" dy="0">Khách chọn phương thức</tspan><tspan x="500" dy="20">COD</tspan></text>
<rect x="310" y="300" width="380" height="70" rx="10" fill="#eef4ff" stroke="#3569b8" stroke-width="2.4"/>
<text x="500" y="335" text-anchor="middle" dominant-baseline="middle" font-family="Arial, sans-serif" font-size="16" font-weight="700" fill="#172033"><tspan x="500" dy="0">Khách xác nhận đơn hàng</tspan></text>
<rect x="310" y="410" width="380" height="70" rx="10" fill="#eef4ff" stroke="#3569b8" stroke-width="2.4"/>
<text x="500" y="435" text-anchor="middle" dominant-baseline="middle" font-family="Arial, sans-serif" font-size="16" font-weight="700" fill="#172033"><tspan x="500" dy="0">Frontend gửi POST</tspan><tspan x="500" dy="20">/api/orders/checkout</tspan></text>
<rect x="310" y="520" width="380" height="85" rx="10" fill="#eef4ff" stroke="#3569b8" stroke-width="2.4"/>
<text x="500" y="542.5" text-anchor="middle" dominant-baseline="middle" font-family="Arial, sans-serif" font-size="16" font-weight="700" fill="#172033"><tspan x="500" dy="0">Backend xác thực token,</tspan><tspan x="500" dy="20">kiểm sản phẩm, tồn kho,</tspan><tspan x="500" dy="20">voucher</tspan></text>
<polygon points="500,650 635,700 500,750 365,700" fill="#fff7ed" stroke="#d97706" stroke-width="2.4"/>
<text x="500" y="700" text-anchor="middle" dominant-baseline="middle" font-family="Arial, sans-serif" font-size="16" font-weight="700" fill="#172033"><tspan x="500" dy="0">Hợp lệ?</tspan></text>
<rect x="70" y="665" width="260" height="70" rx="10" fill="#fee2e2" stroke="#dc2626" stroke-width="2.4"/>
<text x="200" y="700" text-anchor="middle" dominant-baseline="middle" font-family="Arial, sans-serif" font-size="16" font-weight="700" fill="#172033"><tspan x="200" dy="0">Rollback và hiển thị lỗi</tspan></text>
<rect x="310" y="800" width="380" height="70" rx="10" fill="#eef4ff" stroke="#3569b8" stroke-width="2.4"/>
<text x="500" y="825" text-anchor="middle" dominant-baseline="middle" font-family="Arial, sans-serif" font-size="16" font-weight="700" fill="#172033"><tspan x="500" dy="0">Tạo Order PENDING và</tspan><tspan x="500" dy="20">OrderItem</tspan></text>
<rect x="310" y="910" width="380" height="70" rx="10" fill="#eef4ff" stroke="#3569b8" stroke-width="2.4"/>
<text x="500" y="935" text-anchor="middle" dominant-baseline="middle" font-family="Arial, sans-serif" font-size="16" font-weight="700" fill="#172033"><tspan x="500" dy="0">Trừ stock, commit</tspan><tspan x="500" dy="20">transaction</tspan></text>
<rect x="310" y="1020" width="380" height="70" rx="10" fill="#eef4ff" stroke="#3569b8" stroke-width="2.4"/>
<text x="500" y="1055" text-anchor="middle" dominant-baseline="middle" font-family="Arial, sans-serif" font-size="16" font-weight="700" fill="#172033"><tspan x="500" dy="0">Gửi email xác nhận đơn</tspan></text>
<rect x="310" y="1130" width="380" height="70" rx="10" fill="#dcfce7" stroke="#16a34a" stroke-width="2.4"/>
<text x="500" y="1155" text-anchor="middle" dominant-baseline="middle" font-family="Arial, sans-serif" font-size="16" font-weight="700" fill="#172033"><tspan x="500" dy="0">Xóa cart và hiển thị</tspan><tspan x="500" dy="20">thành công</tspan></text>
<rect x="355" y="1240" width="290" height="58" rx="28" fill="#e8fff3" stroke="#16a34a" stroke-width="2.4"/>
<text x="500" y="1269" text-anchor="middle" dominant-baseline="middle" font-family="Arial, sans-serif" font-size="16" font-weight="700" fill="#172033"><tspan x="500" dy="0">Kết thúc</tspan></text>
</svg>