<?xml version="1.0" encoding="UTF-8"?>
<svg xmlns="http://www.w3.org/2000/svg" width="1050" height="1860" viewBox="0 0 1050 1860">
<defs>
  <marker id="arrow" markerWidth="12" markerHeight="12" refX="10" refY="6" orient="auto" markerUnits="strokeWidth">
    <path d="M2,2 L10,6 L2,10 z" fill="#41546f"/>
  </marker>
  <filter id="shadow" x="-10%" y="-10%" width="120%" height="120%"><feDropShadow dx="0" dy="3" stdDeviation="3" flood-color="#0f172a" flood-opacity="0.12"/></filter>
</defs>
<rect x="0" y="0" width="1050" height="1860" fill="#ffffff"/>
<text x="525" y="40" text-anchor="middle" font-family="Arial, sans-serif" font-size="28" font-weight="800" fill="#0f2f5f">Flow thanh toán QR PayOS</text>
<text x="525" y="70" text-anchor="middle" font-family="Arial, sans-serif" font-size="15" fill="#526173">Tạo QR, chờ webhook và cập nhật trạng thái PAID</text>
<path d="M 500 148 L 500 190" fill="none" stroke="#41546f" stroke-width="2.2" marker-end="url(#arrow)"/>
<path d="M 500 260 L 500 300" fill="none" stroke="#41546f" stroke-width="2.2" marker-end="url(#arrow)"/>
<path d="M 500 370 L 500 410" fill="none" stroke="#41546f" stroke-width="2.2" marker-end="url(#arrow)"/>
<path d="M 500 500 L 500 545" fill="none" stroke="#41546f" stroke-width="2.2" marker-end="url(#arrow)"/>
<path d="M 365 595 L 330 595" fill="none" stroke="#41546f" stroke-width="2.2" marker-end="url(#arrow)"/><text x="347.5" y="587" text-anchor="middle" font-family="Arial, sans-serif" font-size="14" font-weight="700" fill="#334155">Không</text>
<path d="M 500 645 L 500 690" fill="none" stroke="#41546f" stroke-width="2.2" marker-end="url(#arrow)"/><text x="500" y="659.5" text-anchor="middle" font-family="Arial, sans-serif" font-size="14" font-weight="700" fill="#334155">Có</text>
<path d="M 500 770 L 500 810" fill="none" stroke="#41546f" stroke-width="2.2" marker-end="url(#arrow)"/>
<path d="M 500 880 L 500 920" fill="none" stroke="#41546f" stroke-width="2.2" marker-end="url(#arrow)"/>
<path d="M 500 990 L 500 1035" fill="none" stroke="#41546f" stroke-width="2.2" marker-end="url(#arrow)"/>
<path d="M 365 1085 L 200 1085 L 200 1170 L 200 1170" fill="none" stroke="#41546f" stroke-width="2.2" marker-end="url(#arrow)"/><text x="200" y="1162" text-anchor="middle" font-family="Arial, sans-serif" font-size="14" font-weight="700" fill="#334155">Chuyển khoản</text>
<path d="M 200 1240 L 200 1280" fill="none" stroke="#41546f" stroke-width="2.2" marker-end="url(#arrow)"/>
<path d="M 200 1350 L 230 1390" fill="none" stroke="#41546f" stroke-width="2.2" marker-end="url(#arrow)"/>
<path d="M 390 1435 L 410 1425" fill="none" stroke="#41546f" stroke-width="2.2" marker-end="url(#arrow)"/>
<path d="M 570 1460 L 570 1510" fill="none" stroke="#41546f" stroke-width="2.2" marker-end="url(#arrow)"/>
<path d="M 570 1610 L 500 1650" fill="none" stroke="#41546f" stroke-width="2.2" marker-end="url(#arrow)"/><text x="535" y="1622" text-anchor="middle" font-family="Arial, sans-serif" font-size="14" font-weight="700" fill="#334155">Có</text>
<path d="M 705 1560 L 850 1560 L 850 955 L 690 955 L 690 955" fill="none" stroke="#41546f" stroke-width="2.2" marker-end="url(#arrow)"/><text x="850" y="947" text-anchor="middle" font-family="Arial, sans-serif" font-size="14" font-weight="700" fill="#334155">Không</text>
<path d="M 635 1085 L 850 1085 L 850 1170 L 850 1170" fill="none" stroke="#41546f" stroke-width="2.2" marker-end="url(#arrow)"/><text x="850" y="1162" text-anchor="middle" font-family="Arial, sans-serif" font-size="14" font-weight="700" fill="#334155">Hủy</text>
<path d="M 500 1720 L 500 1760" fill="none" stroke="#41546f" stroke-width="2.2" marker-end="url(#arrow)"/>
<rect x="355" y="90" width="290" height="58" rx="28" fill="#e8fff3" stroke="#16a34a" stroke-width="2.4"/>
<text x="500" y="119" text-anchor="middle" dominant-baseline="middle" font-family="Arial, sans-serif" font-size="16" font-weight="700" fill="#172033"><tspan x="500" dy="0">Bắt đầu QR PayOS</tspan></text>
<rect x="310" y="190" width="380" height="70" rx="10" fill="#eef4ff" stroke="#3569b8" stroke-width="2.4"/>
<text x="500" y="215" text-anchor="middle" dominant-baseline="middle" font-family="Arial, sans-serif" font-size="16" font-weight="700" fill="#172033"><tspan x="500" dy="0">Khách chọn Chuyển khoản</tspan><tspan x="500" dy="20">QR</tspan></text>
<rect x="310" y="300" width="380" height="70" rx="10" fill="#eef4ff" stroke="#3569b8" stroke-width="2.4"/>
<text x="500" y="325" text-anchor="middle" dominant-baseline="middle" font-family="Arial, sans-serif" font-size="16" font-weight="700" fill="#172033"><tspan x="500" dy="0">POST</tspan><tspan x="500" dy="20">/api/orders/checkout</tspan></text>
<rect x="310" y="410" width="380" height="90" rx="10" fill="#eef4ff" stroke="#3569b8" stroke-width="2.4"/>
<text x="500" y="435" text-anchor="middle" dominant-baseline="middle" font-family="Arial, sans-serif" font-size="16" font-weight="700" fill="#172033"><tspan x="500" dy="0">Backend kiểm tra token,</tspan><tspan x="500" dy="20">tồn kho, voucher, tổng</tspan><tspan x="500" dy="20">tiền &gt;= 2.000đ</tspan></text>
<polygon points="500,545 635,595 500,645 365,595" fill="#fff7ed" stroke="#d97706" stroke-width="2.4"/>
<text x="500" y="595" text-anchor="middle" dominant-baseline="middle" font-family="Arial, sans-serif" font-size="16" font-weight="700" fill="#172033"><tspan x="500" dy="0">Hợp lệ?</tspan></text>
<rect x="70" y="560" width="260" height="70" rx="10" fill="#fee2e2" stroke="#dc2626" stroke-width="2.4"/>
<text x="200" y="595" text-anchor="middle" dominant-baseline="middle" font-family="Arial, sans-serif" font-size="16" font-weight="700" fill="#172033"><tspan x="200" dy="0">Rollback và trả lỗi</tspan></text>
<rect x="310" y="690" width="380" height="80" rx="10" fill="#eef4ff" stroke="#3569b8" stroke-width="2.4"/>
<text x="500" y="720" text-anchor="middle" dominant-baseline="middle" font-family="Arial, sans-serif" font-size="16" font-weight="700" fill="#172033"><tspan x="500" dy="0">Tạo Order PENDING,</tspan><tspan x="500" dy="20">OrderItem và trừ stock</tspan></text>
<rect x="310" y="810" width="380" height="70" rx="10" fill="#eef2ff" stroke="#4f46e5" stroke-width="2.4"/>
<text x="500" y="835" text-anchor="middle" dominant-baseline="middle" font-family="Arial, sans-serif" font-size="16" font-weight="700" fill="#172033"><tspan x="500" dy="0">Gọi PayOS</tspan><tspan x="500" dy="20">createPaymentLink</tspan></text>
<rect x="310" y="920" width="380" height="70" rx="10" fill="#eef2ff" stroke="#4f46e5" stroke-width="2.4"/>
<text x="500" y="945" text-anchor="middle" dominant-baseline="middle" font-family="Arial, sans-serif" font-size="16" font-weight="700" fill="#172033"><tspan x="500" dy="0">Frontend hiển thị</tspan><tspan x="500" dy="20">QR/payment link</tspan></text>
<polygon points="500,1035 635,1085 500,1135 365,1085" fill="#fff7ed" stroke="#d97706" stroke-width="2.4"/>
<text x="500" y="1085" text-anchor="middle" dominant-baseline="middle" font-family="Arial, sans-serif" font-size="16" font-weight="700" fill="#172033"><tspan x="500" dy="0">Khách xử lý?</tspan></text>
<rect x="70" y="1170" width="260" height="70" rx="10" fill="#ecfeff" stroke="#0891b2" stroke-width="2.4"/>
<text x="200" y="1205" text-anchor="middle" dominant-baseline="middle" font-family="Arial, sans-serif" font-size="16" font-weight="700" fill="#172033"><tspan x="200" dy="0">Khách chuyển khoản</tspan></text>
<rect x="70" y="1280" width="260" height="70" rx="10" fill="#ecfeff" stroke="#0891b2" stroke-width="2.4"/>
<text x="200" y="1315" text-anchor="middle" dominant-baseline="middle" font-family="Arial, sans-serif" font-size="16" font-weight="700" fill="#172033"><tspan x="200" dy="0">PayOS gửi webhook</tspan></text>
<rect x="70" y="1390" width="320" height="90" rx="10" fill="#dcfce7" stroke="#16a34a" stroke-width="2.4"/>
<text x="230" y="1415" text-anchor="middle" dominant-baseline="middle" font-family="Arial, sans-serif" font-size="16" font-weight="700" fill="#172033"><tspan x="230" dy="0">Backend cập nhật Order</tspan><tspan x="230" dy="20">PAID, ghi AuditLog, gửi</tspan><tspan x="230" dy="20">email</tspan></text>
<rect x="410" y="1390" width="320" height="70" rx="10" fill="#eef4ff" stroke="#3569b8" stroke-width="2.4"/>
<text x="570" y="1415" text-anchor="middle" dominant-baseline="middle" font-family="Arial, sans-serif" font-size="16" font-weight="700" fill="#172033"><tspan x="570" dy="0">Khách bấm kiểm tra trạng</tspan><tspan x="570" dy="20">thái</tspan></text>
<polygon points="570,1510 705,1560 570,1610 435,1560" fill="#fff7ed" stroke="#d97706" stroke-width="2.4"/>
<text x="570" y="1560" text-anchor="middle" dominant-baseline="middle" font-family="Arial, sans-serif" font-size="16" font-weight="700" fill="#172033"><tspan x="570" dy="0">Status = PAID?</tspan></text>
<rect x="310" y="1650" width="380" height="70" rx="10" fill="#dcfce7" stroke="#16a34a" stroke-width="2.4"/>
<text x="500" y="1675" text-anchor="middle" dominant-baseline="middle" font-family="Arial, sans-serif" font-size="16" font-weight="700" fill="#172033"><tspan x="500" dy="0">Xóa cart và hiển thị</tspan><tspan x="500" dy="20">thành công</tspan></text>
<rect x="700" y="1170" width="300" height="80" rx="10" fill="#fee2e2" stroke="#dc2626" stroke-width="2.4"/>
<text x="850" y="1200" text-anchor="middle" dominant-baseline="middle" font-family="Arial, sans-serif" font-size="16" font-weight="700" fill="#172033"><tspan x="850" dy="0">Hủy QR: CANCELED và hoàn</tspan><tspan x="850" dy="20">stock</tspan></text>
<rect x="355" y="1760" width="290" height="58" rx="28" fill="#e8fff3" stroke="#16a34a" stroke-width="2.4"/>
<text x="500" y="1789" text-anchor="middle" dominant-baseline="middle" font-family="Arial, sans-serif" font-size="16" font-weight="700" fill="#172033"><tspan x="500" dy="0">Kết thúc</tspan></text>
</svg>